Percy Jackson and the Olympians (2010) R5 DVDRip XviD-MAX

Format                           : AVI
Format/Info                      : Audio Video Interleave
File size                        : 1.10 GiB
Duration                         : 1h 51mn
Overall bit rate                 : 1 419 Kbps
Writing application              : VirtualDubMod 1.5.10.2 (build 2542/release)
Writing library                  : VirtualDubMod build 2542/release
Original source form             : MAX TORRENTZ
Copyright                        : SIGISMUNT

Video
ID                               : 0
Format                           : MPEG-4 Visual
Format profile                   : AdvancedSimple@L5
Format settings, BVOP            : Yes
Format settings, QPel            : No
Format settings, GMC             : No warppoints
Format settings, Matrix          : Default (H.263)
Muxing mode                      : Packed bitstream
Codec ID                         : XVID
Codec ID/Hint                    : XviD
Duration                         : 1h 51mn
Bit rate                         : 1 285 Kbps
Width                            : 720 pixels
Height                           : 304 pixels
Display aspect ratio             : 2.35:1
Frame rate                       : 25.000 fps
Resolution                       : 24 bits
Colorimetry                      : 4:2:0
Scan type                        : Progressive
Bits/(Pixel*Frame)               : 0.235
Stream size                      : 1 023 MiB (91%)
Writing library                  : XviD 1.2.1 (UTC 2008-12-04)

Audio
ID                               : 1
Format                           : MPEG Audio
Format version                   : Version 1
Format profile                   : Layer 3
Codec ID                         : 55
Codec ID/Hint                    : MP3
Duration                         : 1h 47mn
Bit rate mode                    : Constant
Bit rate                         : 128 Kbps
Channel(s)                       : 2 channels
Sampling rate                    : 44.1 KHz
Resolution                       : 16 bits
Stream size                      : 98.8 MiB (9%)
Alignment                        : Split accross interleaves
Interleave, duration             : 41 ms (1.03 video frame)
Interleave, preload duration     : 500 ms

ENCODE NOTE: Original DVD Copy VideoSource + R5 IMAGiNE clear audiosource resynced (+150)
 
http://www.imdb.com/title/tt0814255/

Screens:
 
http://www.postimg.com/image/12000/11876.jpg
 
http://www.postimg.com/image/12000/11877.jpg
 
http://www.postimg.com/image/12000/11878.jpg
 
http://www.postimg.com/image/12000/11879.jpg
 
http://www.postimg.com/image/12000/11880.jpg

ScreenCaps:
 
http://www.postimg.com/image/12000/11881.jpg

Percy Jackson and the Olympians (2010) R5 DVDRip XviD-MAX Torrent Free Download
 
http://thepiratebay.org/user/extremezone/0/7